<svg width="32" height="29" viewBox="0 0 32 29" fill="none" xmlns="http://www.w3.org/2000/svg">
<path d="M26.6667 24.8571V25.8929C26.6667 27.6089 25.4728 29 24 29H2.66667C1.19389 29 0 27.6089 0 25.8929V9.32143C0 7.60538 1.19389 6.21429 2.66667 6.21429H3.55556V19.6786C3.55556 22.534 5.54933 24.8571 8 24.8571H26.6667ZM32 19.6786V3.10714C32 1.39109 30.8061 0 29.3333 0H8C6.52722 0 5.33333 1.39109 5.33333 3.10714V19.6786C5.33333 21.3946 6.52722 22.7857 8 22.7857H29.3333C30.8061 22.7857 32 21.3946 32 19.6786ZM14.2222 6.21429C14.2222 7.93033 13.0283 9.32143 11.5556 9.32143C10.0828 9.32143 8.88889 7.93033 8.88889 6.21429C8.88889 4.49824 10.0828 3.10714 11.5556 3.10714C13.0283 3.10714 14.2222 4.49824 14.2222 6.21429ZM8.88889 15.5357L11.9731 11.9421C12.2334 11.6388 12.6555 11.6388 12.9159 11.9421L15.1111 14.5L22.6397 5.72782C22.9001 5.42449 23.3222 5.42449 23.5826 5.72782L28.4444 11.3929V18.6429H8.88889V15.5357Z" fill="url(#paint0_linear_421_786)"/>
<path d="M26.6667 24.8571V25.8929C26.6667 27.6089 25.4728 29 24 29H2.66667C1.19389 29 0 27.6089 0 25.8929V9.32143C0 7.60538 1.19389 6.21429 2.66667 6.21429H3.55556V19.6786C3.55556 22.534 5.54933 24.8571 8 24.8571H26.6667ZM32 19.6786V3.10714C32 1.39109 30.8061 0 29.3333 0H8C6.52722 0 5.33333 1.39109 5.33333 3.10714V19.6786C5.33333 21.3946 6.52722 22.7857 8 22.7857H29.3333C30.8061 22.7857 32 21.3946 32 19.6786ZM14.2222 6.21429C14.2222 7.93033 13.0283 9.32143 11.5556 9.32143C10.0828 9.32143 8.88889 7.93033 8.88889 6.21429C8.88889 4.49824 10.0828 3.10714 11.5556 3.10714C13.0283 3.10714 14.2222 4.49824 14.2222 6.21429ZM8.88889 15.5357L11.9731 11.9421C12.2334 11.6388 12.6555 11.6388 12.9159 11.9421L15.1111 14.5L22.6397 5.72782C22.9001 5.42449 23.3222 5.42449 23.5826 5.72782L28.4444 11.3929V18.6429H8.88889V15.5357Z" fill="url(#paint1_linear_421_786)" fill-opacity="0.75" style="mix-blend-mode:lighten"/>
<defs>
<linearGradient id="paint0_linear_421_786" x1="4.75" y1="4.53125" x2="25.0871" y2="26.4735" gradientUnits="userSpaceOnUse">
<stop stop-color="#F472B6"/>
<stop offset="0.497013" stop-color="#9797D7"/>
<stop offset="1" stop-color="#38BDF8"/>
</linearGradient>
<linearGradient id="paint1_linear_421_786" x1="28.5" y1="7.02344" x2="4.19019" y2="23.4307" gradientUnits="userSpaceOnUse">
<stop stop-color="#F472B6"/>
<stop offset="0.58113" stop-color="#9199D9"/>
<stop offset="1" stop-color="#38BDF8"/>
</linearGradient>
</defs>
</svg>
