<svg width="23" height="21" viewBox="0 0 23 21" fill="none" xmlns="http://www.w3.org/2000/svg">
<path d="M20.7 3.43643C21.31 3.43643 21.895 3.67779 22.3263 4.10743C22.7577 4.53707 23 5.11978 23 5.72738V18.709C23 19.3166 22.7577 19.8994 22.3263 20.329C21.895 20.7586 21.31 21 20.7 21H5.75C5.14 21 4.55499 20.7586 4.12365 20.329C3.69232 19.8994 3.45 19.3166 3.45 18.709V5.72738C3.45 5.11978 3.69232 4.53707 4.12365 4.10743C4.55499 3.67779 5.14 3.43643 5.75 3.43643H20.7ZM11.1918 12.5361L5.9064 17.8007L5.8305 17.8694L5.75 17.9313V18.7102H20.7V17.9313L20.6195 17.8706L20.5436 17.8018L17.9676 15.236L17.5616 15.6415L17.6249 15.7045C17.8311 15.9106 17.9509 16.1872 17.9598 16.4781C17.9687 16.769 17.8662 17.0524 17.6729 17.2707C17.4797 17.4889 17.2103 17.6258 16.9194 17.6534C16.6285 17.681 16.338 17.5973 16.1069 17.4192L15.9988 17.3242L11.1918 12.5361ZM17.25 1.14855e-07C17.8303 -0.000182794 18.3892 0.218106 18.8146 0.611108C19.2401 1.00411 19.5007 1.54278 19.5443 2.11913L19.55 2.29095H3.45C3.16833 2.29099 2.89646 2.39399 2.68597 2.58043C2.47548 2.76687 2.34101 3.02377 2.30805 3.30241L2.3 3.43643V17.1821C1.71974 17.1823 1.16085 16.964 0.73537 16.571C0.309891 16.178 0.0492698 15.6394 0.00575014 15.063L5.35951e-09 14.8912V3.43643C-4.9015e-05 2.5599 0.336174 1.71648 0.939876 1.07874C1.54358 0.441 2.36912 0.0571507 3.2476 0.00572762L3.45 1.14855e-07H17.25ZM20.7 5.72738H5.75V14.7171L10.1752 10.3093C10.3087 10.1763 10.4672 10.0708 10.6416 9.9988C10.816 9.92682 11.003 9.88977 11.1918 9.88977C11.3806 9.88977 11.5676 9.92682 11.742 9.9988C11.9164 10.0708 12.0749 10.1763 12.2084 10.3093L15.9356 14.0206L16.9521 13.0092C17.0856 12.8762 17.2441 12.7707 17.4186 12.6987C17.593 12.6267 17.7799 12.5897 17.9687 12.5897C18.1576 12.5897 18.3445 12.6267 18.5189 12.6987C18.6934 12.7707 18.8519 12.8762 18.9854 13.0092L20.7 14.7171V5.72738ZM16.675 7.44559C16.9015 7.44559 17.1258 7.49003 17.3351 7.57638C17.5444 7.66273 17.7346 7.78929 17.8948 7.94884C18.0549 8.10839 18.182 8.29781 18.2687 8.50627C18.3554 8.71473 18.4 8.93816 18.4 9.1638C18.4 9.38944 18.3554 9.61287 18.2687 9.82133C18.182 10.0298 18.0549 10.2192 17.8948 10.3788C17.7346 10.5383 17.5444 10.6649 17.3351 10.7512C17.1258 10.8376 16.9015 10.882 16.675 10.882C16.2175 10.882 15.7787 10.701 15.4552 10.3788C15.1317 10.0565 14.95 9.6195 14.95 9.1638C14.95 8.7081 15.1317 8.27107 15.4552 7.94884C15.7787 7.62662 16.2175 7.44559 16.675 7.44559Z" fill="black"/>
</svg>
