<svg width="24" height="24" viewBox="0 0 301 170" fill="none" xmlns="http://www.w3.org/2000/svg">
<path d="M219.563 126.726C217.092 126.726 214.676 125.993 212.622 124.62C210.567 123.246 208.965 121.294 208.019 119.009C207.073 116.724 206.825 114.21 207.307 111.785C207.789 109.359 208.978 107.131 210.725 105.382C212.472 103.633 214.698 102.441 217.121 101.958C219.544 101.475 222.056 101.722 224.339 102.668C226.622 103.614 228.574 105.217 229.947 107.273C231.32 109.329 232.053 111.746 232.054 114.219C232.05 117.534 230.733 120.713 228.391 123.057C226.05 125.402 222.875 126.721 219.563 126.726ZM81.4853 126.726C79.0144 126.726 76.5988 125.993 74.544 124.62C72.4893 123.246 70.8876 121.294 69.9416 119.009C68.9956 116.724 68.7477 114.21 69.2293 111.785C69.7109 109.359 70.9004 107.131 72.6472 105.382C74.3941 103.633 76.62 102.441 79.0433 101.958C81.4667 101.475 83.9787 101.722 86.2617 102.668C88.5447 103.614 90.4962 105.217 91.8694 107.273C93.2426 109.329 93.9757 111.746 93.9762 114.219C93.9731 117.535 92.6562 120.713 90.3145 123.058C87.9729 125.402 84.7976 126.722 81.4853 126.726ZM224.043 51.411L249.008 8.13288C249.35 7.54173 249.571 6.88907 249.661 6.21215C249.75 5.53522 249.706 4.84729 249.529 4.18764C249.353 3.52799 249.049 2.90953 248.634 2.36757C248.219 1.82561 247.701 1.37078 247.111 1.02903C246.52 0.687275 245.868 0.465304 245.192 0.375788C244.515 0.286271 243.828 0.330961 243.169 0.507306C242.51 0.683651 241.892 0.988198 241.35 1.40356C240.809 1.81892 240.355 2.33696 240.013 2.9281L214.732 46.7528C195.4 37.9219 173.689 33.0046 150.522 33.0046C127.355 33.0046 105.645 37.929 86.3136 46.7528L61.0352 2.9281C60.6942 2.3368 60.2402 1.81852 59.6991 1.40284C59.158 0.987158 58.5404 0.682221 57.8815 0.505438C57.2227 0.328655 56.5355 0.283489 55.8592 0.372518C55.1829 0.461546 54.5307 0.683027 53.9399 1.02431C53.3492 1.3656 52.8313 1.82001 52.416 2.36159C52.0007 2.90318 51.696 3.52134 51.5194 4.18077C51.3428 4.84021 51.2976 5.528 51.3866 6.20489C51.4755 6.88178 51.6968 7.53451 52.0378 8.12581L77.0054 51.411C34.1349 74.7488 4.81213 118.187 0.522949 169.509H300.525C296.231 118.187 266.911 74.7488 224.043 51.411Z" fill="#3DDC84"/>
</svg>
