<svg width="24" height="24" viewBox="0 0 24 24" fill="none" xmlns="http://www.w3.org/2000/svg">
<path d="M21.71 2.29999C21.5226 2.11374 21.2692 2.0092 21.005 2.0092C20.7408 2.0092 20.4874 2.11374 20.3 2.29999L16.92 5.59999L15.7 4.39999C15.5104 4.21434 15.2548 4.11162 14.9894 4.11444C14.724 4.11725 14.4707 4.22536 14.285 4.41499C14.0993 4.60462 13.9966 4.86024 13.9994 5.1256C14.0023 5.39096 14.1104 5.64434 14.3 5.82999L16.22 7.70999C16.4069 7.89322 16.6582 7.99585 16.92 7.99585C17.1818 7.99585 17.4331 7.89322 17.62 7.70999L21.7 3.70999C21.8876 3.52396 21.9939 3.27124 21.9958 3.00706C21.9977 2.74287 21.8949 2.48867 21.71 2.29999ZM19 8.99999C18.7348 8.99999 18.4804 9.10535 18.2929 9.29289C18.1054 9.48042 18 9.73478 18 9.99999V14.39L16.52 12.91C16.2626 12.6509 15.9564 12.4452 15.6192 12.3049C15.2819 12.1646 14.9203 12.0923 14.555 12.0923C14.1897 12.0923 13.8281 12.1646 13.4908 12.3049C13.1536 12.4452 12.8474 12.6509 12.59 12.91L11.89 13.61L9.41 11.12C8.88742 10.6015 8.18113 10.3106 7.445 10.3106C6.70887 10.3106 6.00258 10.6015 5.48 11.12L4 12.6V6.99999C4 6.73478 4.10536 6.48042 4.29289 6.29289C4.48043 6.10535 4.73478 5.99999 5 5.99999H11C11.2652 5.99999 11.5196 5.89464 11.7071 5.7071C11.8946 5.51956 12 5.26521 12 4.99999C12 4.73478 11.8946 4.48042 11.7071 4.29289C11.5196 4.10535 11.2652 3.99999 11 3.99999H5C4.20435 3.99999 3.44129 4.31606 2.87868 4.87867C2.31607 5.44128 2 6.20434 2 6.99999V19C2 19.7956 2.31607 20.5587 2.87868 21.1213C3.44129 21.6839 4.20435 22 5 22H17C17.7956 22 18.5587 21.6839 19.1213 21.1213C19.6839 20.5587 20 19.7956 20 19V9.99999C20 9.73478 19.8946 9.48042 19.7071 9.29289C19.5196 9.10535 19.2652 8.99999 19 8.99999ZM5 20C4.73478 20 4.48043 19.8946 4.29289 19.7071C4.10536 19.5196 4 19.2652 4 19V15.43L6.9 12.53C7.04691 12.39 7.24206 12.3119 7.445 12.3119C7.64794 12.3119 7.84309 12.39 7.99 12.53L11.16 15.7L15.45 20H5ZM18 19C17.9986 19.1914 17.9354 19.3773 17.82 19.53L13.31 15L14.01 14.3C14.1562 14.1547 14.3539 14.0731 14.56 14.0731C14.7661 14.0731 14.9638 14.1547 15.11 14.3L18 17.22V19Z" fill="black"/>
</svg>
