<svg width="28" height="28" viewBox="0 0 21 18" fill="none" xmlns="http://www.w3.org/2000/svg">
<path d="M9.83056 4.00289C9.4285 3.15389 8.76285 2.45499 7.93024 2.01226C7.03741 1.5375 6.00771 1.38662 5.01621 1.58527C4.02471 1.78392 3.13261 2.31983 2.49158 3.10189C1.85057 3.88393 1.50019 4.86383 1.5 5.87501L9.83056 4.00289ZM9.83056 4.00289L9.44142 4.93461L10.5698 4.45722L10.5698 4.45721L11.0282 4.26329L10.9194 4.00289C11.3215 3.15389 11.9871 2.45499 12.8198 2.01226C13.7126 1.53751 14.7423 1.38663 15.7338 1.58527C16.7253 1.78392 17.6174 2.31983 18.2584 3.10189C18.8994 3.88393 19.2498 4.86383 19.25 5.87501L9.83056 4.00289ZM10.2321 16.8348C10.2847 16.8668 10.3324 16.8956 10.375 16.921C10.4176 16.8956 10.4653 16.8668 10.5179 16.8348C10.7685 16.6823 11.1282 16.4564 11.5606 16.1653C12.4262 15.5825 13.5783 14.7413 14.728 13.7065C17.0577 11.6097 19.25 8.83243 19.25 5.87509L10.2321 16.8348ZM10.2321 16.8348C9.98145 16.6823 9.62176 16.4564 9.18942 16.1653M10.2321 16.8348L9.18942 16.1653M9.18942 16.1653C8.32377 15.5825 7.17174 14.7413 6.02198 13.7065M9.18942 16.1653L6.02198 13.7065M6.02198 13.7065C3.69225 11.6097 1.50004 8.83243 1.5 5.87509L6.02198 13.7065Z" fill="#F47291" stroke="#F47291"/>
<path d="M10.375 17.5C10.375 17.5 1 12.25 1 5.87501C1.00019 4.74826 1.39061 3.65635 2.10489 2.78493C2.81916 1.91351 3.8132 1.31636 4.91799 1.09501C6.02278 0.873669 7.17014 1.04179 8.16499 1.57079C9.15984 2.09979 9.94077 2.95702 10.375 3.99673L10.375 3.99673C10.8092 2.95702 11.5902 2.09979 12.585 1.57079C13.5799 1.04179 14.7272 0.873672 15.832 1.09502C16.9368 1.31636 17.9308 1.91351 18.6451 2.78493C19.3594 3.65635 19.7498 4.74826 19.75 5.87501C19.75 12.25 10.375 17.5 10.375 17.5Z" fill="#F47291" stroke="#F47291" stroke-linecap="round" stroke-linejoin="round"/>
</svg>
