<svg width="32" height="32" viewBox="0 0 24 24" fill="none" xmlns="http://www.w3.org/2000/svg">
<path opacity="0.2" d="M21.1875 14.2498L19.8607 12.4808C19.8702 12.3217 19.875 12.1615 19.8751 12.0001C19.8751 11.8386 19.8703 11.6783 19.8607 11.5192V11.5192L21.187 9.75017C21.2584 9.65525 21.3062 9.54473 21.3265 9.42771C21.3468 9.31069 21.3391 9.19052 21.3038 9.0771C21.1323 8.52921 20.9123 7.99766 20.6466 7.48873C20.5914 7.38337 20.5118 7.29266 20.4146 7.22409C20.3174 7.15553 20.2052 7.11107 20.0874 7.09439L17.8983 6.78166C17.7926 6.66246 17.6827 6.54576 17.5686 6.43157C17.4544 6.3174 17.3377 6.20747 17.2184 6.10177V6.10172L16.9054 3.91297C16.8888 3.79537 16.8444 3.68341 16.776 3.5863C16.7076 3.4892 16.6172 3.40973 16.512 3.35446C16.0033 3.08836 15.4719 2.86801 14.9242 2.69601C14.8106 2.66059 14.6902 2.65269 14.573 2.67295C14.4558 2.69322 14.3451 2.74107 14.25 2.81256L12.4809 4.13938C12.3218 4.12982 12.1616 4.12501 12.0002 4.12496C11.8387 4.12496 11.6784 4.12978 11.5193 4.1394L11.5193 4.13938L9.75027 2.81304C9.65536 2.74163 9.54484 2.69381 9.42782 2.6735C9.3108 2.6532 9.19063 2.661 9.07722 2.69626C8.52933 2.86782 7.99777 3.08774 7.48883 3.35343C7.38348 3.40869 7.29278 3.48822 7.22422 3.58544C7.15565 3.68266 7.1112 3.79479 7.09451 3.91258L6.78181 6.10172C6.66261 6.2074 6.54589 6.3173 6.43167 6.43143C6.3175 6.54559 6.20757 6.66233 6.10189 6.78164L6.10185 6.78166L3.91309 7.09466C3.79549 7.1113 3.68353 7.15564 3.58642 7.22403C3.48932 7.29242 3.40986 7.38291 3.35458 7.48803C3.08848 7.99675 2.86813 8.52812 2.69613 9.07586C2.66071 9.18944 2.65281 9.30981 2.67307 9.42704C2.69334 9.54427 2.74119 9.655 2.81268 9.7501L4.13951 11.5192C4.12994 11.6782 4.12513 11.8384 4.12509 11.9999C4.12509 12.1613 4.12989 12.3216 4.13951 12.4807V12.4808L2.81313 14.2498C2.74174 14.3447 2.69393 14.4552 2.67362 14.5722C2.65332 14.6892 2.66111 14.8094 2.69635 14.9228C2.86792 15.4707 3.08786 16.0023 3.35357 16.5112C3.40882 16.6166 3.48834 16.7073 3.58557 16.7758C3.68279 16.8444 3.79493 16.8889 3.91272 16.9055L6.10184 17.2183C6.20754 17.3375 6.31745 17.4542 6.43157 17.5684C6.54574 17.6825 6.66247 17.7925 6.78176 17.8982L6.7818 17.8982L7.09478 20.087C7.11141 20.2046 7.15575 20.3165 7.22414 20.4136C7.29253 20.5107 7.38301 20.5902 7.48813 20.6455C7.99686 20.9116 8.52823 21.1319 9.07598 21.3039C9.18955 21.3393 9.30992 21.3472 9.42716 21.327C9.54439 21.3067 9.65512 21.2589 9.75022 21.1874L11.5193 19.8605C11.6783 19.8701 11.8386 19.8749 12 19.875C12.1614 19.875 12.3217 19.8701 12.4808 19.8605L12.4809 19.8605L14.2499 21.1869C14.3448 21.2583 14.4553 21.3061 14.5723 21.3264C14.6894 21.3467 14.8095 21.3389 14.9229 21.3037C15.4708 21.1321 16.0024 20.9122 16.5113 20.6465C16.6167 20.5912 16.7074 20.5117 16.776 20.4145C16.8445 20.3173 16.889 20.2051 16.9057 20.0873L17.2184 17.8982C17.3376 17.7925 17.4543 17.6826 17.5685 17.5685C17.6827 17.4543 17.7926 17.3376 17.8983 17.2183L17.8983 17.2183L20.0871 16.9053C20.2047 16.8886 20.3166 16.8443 20.4137 16.7759C20.5108 16.7075 20.5903 16.617 20.6456 16.5119C20.9117 16.0032 21.132 15.4718 21.304 14.9241C21.3395 14.8105 21.3474 14.6901 21.3271 14.5729C21.3068 14.4557 21.259 14.3449 21.1875 14.2498ZM12.0001 16.5C11.1101 16.5 10.24 16.236 9.50002 15.7416C8.76 15.2471 8.18322 14.5443 7.84263 13.722C7.50203 12.8998 7.41292 11.995 7.58655 11.1221C7.76018 10.2491 8.18877 9.44732 8.81811 8.81798C9.44744 8.18865 10.2493 7.76006 11.1222 7.58643C11.9951 7.4128 12.8999 7.50191 13.7222 7.84251C14.5444 8.1831 15.2472 8.75988 15.7417 9.4999C16.2362 10.2399 16.5001 11.1099 16.5001 12C16.5001 12.5909 16.3837 13.1761 16.1575 13.722C15.9314 14.268 15.5999 14.7641 15.1821 15.1819C14.7642 15.5998 14.2681 15.9313 13.7222 16.1574C13.1762 16.3836 12.591 16.5 12.0001 16.5Z" fill="#061C3D"/>
<path d="M12 16.5C14.4853 16.5 16.5 14.4853 16.5 12C16.5 9.51472 14.4853 7.5 12 7.5C9.51472 7.5 7.5 9.51472 7.5 12C7.5 14.4853 9.51472 16.5 12 16.5Z" stroke="#061C3D" stroke-width="1.5" stroke-linecap="round" stroke-linejoin="round"/>
<path d="M11.5193 4.1394L9.75029 2.81303C9.65537 2.74163 9.54485 2.69381 9.42783 2.6735C9.3108 2.6532 9.19063 2.661 9.07721 2.69625C8.52933 2.86782 7.99778 3.08774 7.48884 3.35343C7.38349 3.40869 7.29278 3.48821 7.22422 3.58544C7.15566 3.68266 7.1112 3.7948 7.09451 3.91259L6.78179 6.10174C6.66259 6.2074 6.54588 6.3173 6.43168 6.43144C6.31752 6.5456 6.2076 6.66234 6.10191 6.78163L6.10186 6.78167L3.9131 7.09467C3.7955 7.1113 3.68353 7.15563 3.58642 7.22403C3.48932 7.29242 3.40986 7.38291 3.35459 7.48804C3.08849 7.99676 2.86814 8.52813 2.69613 9.07588C2.66071 9.18945 2.65281 9.30982 2.67307 9.42705C2.69334 9.54428 2.7412 9.65501 2.81269 9.7501L4.13952 11.5192C4.12995 11.6782 4.12514 11.8384 4.12509 11.9999C4.12509 12.1613 4.1299 12.3216 4.13953 12.4807L4.13952 12.4808L2.81315 14.2498C2.74175 14.3447 2.69393 14.4552 2.67363 14.5722C2.65332 14.6893 2.66112 14.8094 2.69638 14.9228C2.86794 15.4707 3.08787 16.0023 3.35355 16.5112C3.40881 16.6166 3.48834 16.7073 3.58556 16.7758C3.68278 16.8444 3.79492 16.8889 3.91271 16.9055L6.10186 17.2183C6.20752 17.3375 6.31742 17.4542 6.43156 17.5684C6.54572 17.6825 6.66245 17.7925 6.78175 17.8981L6.78179 17.8982L7.09479 20.087C7.11142 20.2046 7.15575 20.3165 7.22415 20.4136C7.29254 20.5107 7.38303 20.5902 7.48816 20.6455C7.99688 20.9116 8.52825 21.1319 9.07599 21.3039C9.18957 21.3393 9.30994 21.3472 9.42717 21.327C9.5444 21.3067 9.65513 21.2589 9.75022 21.1874L11.5193 19.8605C11.6783 19.8701 11.8385 19.8749 12 19.875C12.1614 19.875 12.3217 19.8702 12.4808 19.8605L12.4809 19.8605L14.2499 21.1869C14.3448 21.2583 14.4553 21.3061 14.5723 21.3264C14.6894 21.3467 14.8095 21.3389 14.923 21.3037C15.4708 21.1321 16.0024 20.9122 16.5113 20.6465C16.6167 20.5912 16.7074 20.5117 16.776 20.4145C16.8445 20.3173 16.889 20.2051 16.9057 20.0873L17.2184 17.8982C17.3376 17.7925 17.4543 17.6826 17.5685 17.5685C17.6827 17.4543 17.7926 17.3376 17.8983 17.2183L17.8983 17.2183L20.0871 16.9053C20.2047 16.8886 20.3166 16.8443 20.4138 16.7759C20.5109 16.7075 20.5903 16.617 20.6456 16.5119C20.9117 16.0032 21.132 15.4718 21.304 14.9241C21.3395 14.8105 21.3474 14.6901 21.3271 14.5729C21.3068 14.4557 21.259 14.3449 21.1875 14.2498L19.8607 12.4808C19.8702 12.3217 19.875 12.1615 19.8751 12.0001C19.8751 11.8386 19.8703 11.6783 19.8607 11.5192L19.8607 11.5192L21.187 9.75017C21.2584 9.65526 21.3062 9.54473 21.3266 9.42771C21.3469 9.31068 21.3391 9.19051 21.3038 9.07709C21.1322 8.52921 20.9123 7.99766 20.6466 7.48872C20.5914 7.38337 20.5118 7.29267 20.4146 7.2241C20.3174 7.15554 20.2053 7.11108 20.0875 7.09439L17.8983 6.78167C17.7927 6.66247 17.6828 6.54577 17.5686 6.43157C17.4545 6.3174 17.3377 6.20748 17.2184 6.10179L17.2184 6.10174L16.9054 3.91298C16.8888 3.79538 16.8444 3.68341 16.776 3.5863C16.7076 3.4892 16.6171 3.40973 16.512 3.35446C16.0033 3.08837 15.4719 2.86802 14.9242 2.69601C14.8106 2.66059 14.6902 2.65269 14.573 2.67295C14.4558 2.69322 14.345 2.74107 14.25 2.81257L12.4809 4.1394C12.3219 4.12982 12.1616 4.12501 12.0002 4.12497C11.8387 4.12497 11.6785 4.12978 11.5194 4.1394L11.5193 4.1394Z" stroke="#061C3D" stroke-width="1.5" stroke-linecap="round" stroke-linejoin="round"/>
</svg>
