<svg width="none" height="none" viewBox="0 0 24 24" stroke="transparent" fill="none" xmlns="http://www.w3.org/2000/svg">
<path opacity="0.2" d="M12.0029 20.25C12.0029 20.25 2.62793 15 2.62793 8.62501C2.62812 7.49826 3.01854 6.40635 3.73282 5.53493C4.44709 4.66351 5.44113 4.06636 6.54592 3.84501C7.65071 3.62367 8.79807 3.79179 9.79292 4.32079C10.7878 4.84979 11.5687 5.70702 12.0029 6.74673L12.0029 6.74673C12.4372 5.70702 13.2181 4.84979 14.2129 4.32079C15.2078 3.79179 16.3551 3.62367 17.4599 3.84502C18.5647 4.06636 19.5588 4.66351 20.273 5.53493C20.9873 6.40635 21.3777 7.49826 21.3779 8.62501C21.3779 15 12.0029 20.25 12.0029 20.25Z" fill="rgba(6,28,61,0)"/>
<path d="M12.0029 20.25C12.0029 20.25 2.62793 15 2.62793 8.62501C2.62812 7.49826 3.01854 6.40635 3.73282 5.53493C4.44709 4.66351 5.44113 4.06636 6.54592 3.84501C7.65071 3.62367 8.79807 3.79179 9.79292 4.32079C10.7878 4.84979 11.5687 5.70702 12.0029 6.74673L12.0029 6.74673C12.4372 5.70702 13.2181 4.84979 14.2129 4.32079C15.2078 3.79179 16.3551 3.62367 17.4599 3.84502C18.5647 4.06636 19.5588 4.66351 20.273 5.53493C20.9873 6.40635 21.3777 7.49826 21.3779 8.62501C21.3779 15 12.0029 20.25 12.0029 20.25Z" stroke="transparent" stroke-width="1.5" stroke-linecap="round" stroke-linejoin="round"/>
</svg>
