<svg width="24" height="24" viewBox="0 0 300 369" fill="none" xmlns="http://www.w3.org/2000/svg">
<path d="M290.602 125.844C266.024 141.032 250.843 167.068 250.843 195.998C250.843 228.544 270.361 258.197 300 270.492C294.217 289.296 285.542 306.654 274.699 322.565C258.795 344.986 242.169 368.129 217.59 368.129C193.012 368.129 185.783 353.664 156.867 353.664C128.675 353.664 118.554 368.852 95.4217 368.852C72.2892 368.852 56.3855 347.878 38.3133 321.842C14.4578 285.68 0.722892 243.732 0 199.614C0 128.014 46.2651 89.6818 92.5301 89.6818C117.108 89.6818 137.349 105.593 152.53 105.593C166.988 105.593 190.12 88.9585 217.59 88.9585C246.506 88.2353 273.976 101.977 290.602 125.844ZM204.578 58.5825C216.867 44.1176 223.373 26.0366 224.096 7.2324C224.096 5.06268 224.096 2.16972 223.373 0C202.41 2.16972 182.892 12.2951 169.157 28.2064C156.867 41.9479 149.639 59.3057 148.916 78.1099C148.916 80.2797 148.916 82.4494 149.639 84.6191C151.084 84.6191 153.253 85.3423 154.699 85.3423C174.217 83.8959 192.289 73.7705 204.578 58.5825Z" fill="black"/>
</svg>
