<svg id="레이어_1" data-name="레이어 1" xmlns="http://www.w3.org/2000/svg" xmlns:xlink="http://www.w3.org/1999/xlink" viewBox="0 0 80 36"><defs><style>.cls-1{fill:url(#무제_그라디언트_13);}.cls-2{fill:url(#무제_그라디언트_13-2);}.cls-3{fill:url(#무제_그라디언트_13-3);}.cls-4{fill:url(#무제_그라디언트_13-4);}</style><linearGradient id="무제_그라디언트_13" x1="14.13" y1="28.18" x2="2.54" y2="8.1" gradientUnits="userSpaceOnUse"><stop offset="0" stop-color="#79abdc"/><stop offset="1" stop-color="#d282b4"/></linearGradient><linearGradient id="무제_그라디언트_13-2" x1="33.69" y1="28.22" x2="21.9" y2="7.79" xlink:href="#무제_그라디언트_13"/><linearGradient id="무제_그라디언트_13-3" x1="57.81" y1="31.48" x2="43.24" y2="6.25" xlink:href="#무제_그라디언트_13"/><linearGradient id="무제_그라디언트_13-4" x1="78.5" y1="28.97" x2="65.96" y2="7.25" xlink:href="#무제_그라디언트_13"/></defs><path class="cls-1" d="M7.25,20.33c-1-.37-1.82-.75-2.6-1.14a7.69,7.69,0,0,1-2-1.4,5.66,5.66,0,0,1-1.32-1.95,7.32,7.32,0,0,1-.47-2.77A6.47,6.47,0,0,1,3,8,8.61,8.61,0,0,1,8.93,6.1a14,14,0,0,1,2.59.23A7,7,0,0,1,13.58,7a3.62,3.62,0,0,1,1.34,1.19,2.92,2.92,0,0,1,.49,1.69A3.31,3.31,0,0,1,15,11.56a4.36,4.36,0,0,1-.94,1.17,6.67,6.67,0,0,0-1.91-.91,8.42,8.42,0,0,0-2.62-.39,3.84,3.84,0,0,0-2.14.46,1.38,1.38,0,0,0-.68,1.18,1.14,1.14,0,0,0,.42.91,4.06,4.06,0,0,0,1.26.65l1.72.63a12.13,12.13,0,0,1,4.68,2.85,6.6,6.6,0,0,1,1.64,4.71,6.58,6.58,0,0,1-2.17,5.12c-1.45,1.3-3.58,2-6.39,2a13.47,13.47,0,0,1-2.77-.28,8.14,8.14,0,0,1-2.23-.82A4.32,4.32,0,0,1,1.4,27.46a3.24,3.24,0,0,1-.54-1.85,3.13,3.13,0,0,1,.55-1.84,4.41,4.41,0,0,1,1.2-1.17A8.44,8.44,0,0,0,4.83,24a6.83,6.83,0,0,0,2.87.6,3.44,3.44,0,0,0,2.23-.56,1.66,1.66,0,0,0,.65-1.3,1.33,1.33,0,0,0-.52-1.14,6.38,6.38,0,0,0-1.45-.76Z"/><path class="cls-2" d="M17.54,18a15.29,15.29,0,0,1,.79-5.14A10.87,10.87,0,0,1,20.5,9.1a9.21,9.21,0,0,1,3.24-2.29,10.83,10.83,0,0,1,8.07,0A9.24,9.24,0,0,1,35.06,9.1a10.75,10.75,0,0,1,2.19,3.74A15.29,15.29,0,0,1,38,18a15.73,15.73,0,0,1-.77,5.16,10.7,10.7,0,0,1-2.16,3.76,9.16,9.16,0,0,1-3.25,2.29,10.6,10.6,0,0,1-4.09.78,10.42,10.42,0,0,1-4.08-.8,9,9,0,0,1-3.24-2.33,10.9,10.9,0,0,1-2.13-3.76A15.44,15.44,0,0,1,17.54,18Zm5.83,0a8.74,8.74,0,0,0,1.2,5.07,3.94,3.94,0,0,0,6.44,0A8.74,8.74,0,0,0,32.21,18,8.75,8.75,0,0,0,31,13a3.75,3.75,0,0,0-3.22-1.67,3.81,3.81,0,0,0-3.23,1.66A8.51,8.51,0,0,0,23.37,18Z"/><path class="cls-3" d="M53.62,23.75a2.93,2.93,0,0,1-1.09.65,4.25,4.25,0,0,1-1.54.25,4.65,4.65,0,0,1-1.92-.34,1.68,1.68,0,0,1-1-1.15c-.61-2.19-1.1-4-1.49-5.31s-.69-2.54-.91-3.56h-.16c-.07,1.47-.11,2.8-.15,4s0,2.37-.06,3.52,0,2.29-.07,3.46-.08,2.46-.14,3.87a5.06,5.06,0,0,1-1.1.32,7.92,7.92,0,0,1-1.36.13,4,4,0,0,1-2.22-.52,2.11,2.11,0,0,1-.8-1.9l.94-19a3.27,3.27,0,0,1,1.14-1,4.48,4.48,0,0,1,2.46-.56,5,5,0,0,1,2.69.61,3.56,3.56,0,0,1,1.42,2c.2.6.41,1.28.63,2.05s.46,1.57.68,2.39.45,1.63.67,2.43.41,1.54.58,2.18H51q.78-3.12,1.56-6T54,7.3a4.91,4.91,0,0,1,1.25-.51,6.89,6.89,0,0,1,1.7-.2,5.44,5.44,0,0,1,2.59.54,2.08,2.08,0,0,1,1.17,1.54c.09.5.18,1.26.27,2.29s.2,2.19.31,3.48.22,2.66.33,4.1.21,2.82.31,4.15.17,2.55.24,3.65.11,2,.13,2.55a3.88,3.88,0,0,1-1.15.54,6,6,0,0,1-1.54.17,4,4,0,0,1-2.07-.49,2.08,2.08,0,0,1-.91-1.89q-.2-4.06-.24-7.3c0-2.16-.09-4-.15-5.44h-.16c-.22,1-.53,2.19-.94,3.65S54.2,21.47,53.62,23.75Z"/><path class="cls-4" d="M64.72,10.2a3.71,3.71,0,0,1,.81-2.53,2.76,2.76,0,0,1,2.2-.93H78.42a4.81,4.81,0,0,1,.41,1.08A5.39,5.39,0,0,1,79,9.23a3,3,0,0,1-.54,2,1.78,1.78,0,0,1-1.41.6H70.23V15.3h7.29a5,5,0,0,1,.4,1.06,5.26,5.26,0,0,1,.18,1.4,3,3,0,0,1-.52,2,1.73,1.73,0,0,1-1.39.59h-6v3.91h8.32A5.22,5.22,0,0,1,79,25.35a5.47,5.47,0,0,1,.18,1.42,3.06,3.06,0,0,1-.54,2,1.77,1.77,0,0,1-1.41.61H67.73a2.76,2.76,0,0,1-2.2-.93A3.71,3.71,0,0,1,64.72,26Z"/></svg>