<svg id="레이어_1" data-name="레이어 1" xmlns="http://www.w3.org/2000/svg" xmlns:xlink="http://www.w3.org/1999/xlink" viewBox="0 0 100 100"><defs><style>.cls-1{fill:url(#무제_그라디언트_6);}.cls-2{fill:#2c2a2b;}.cls-3{fill:#fff;}</style><linearGradient id="무제_그라디언트_6" x1="53.84" y1="77.59" x2="39.59" y2="10.87" gradientUnits="userSpaceOnUse"><stop offset="0" stop-color="#87bce6"/><stop offset="1" stop-color="#ef90b9"/></linearGradient></defs><polygon class="cls-1" points="76.97 19.66 82.14 30.37 66.45 79.61 18.99 78.3 13.91 70.41 34.49 18.62 76.97 19.66"/><path class="cls-2" d="M19.33,64.36,35.64,21.43s.22-.31,1.07-.31,13.12.23,13.12.23.42,0,.29.38l-2.5,7.57a1,1,0,0,1-1,.78c-.78,0-11.58,2.63-15.1,12.44S38.39,55.2,38.39,55.2s.09.18-.17.91-2.93,8.25-2.93,8.25l28.46,1.38,13-41.62s2.55-8.51-5.84-8.69S36,15.18,36,15.18s-4-.22-5.47,3.39S26,29.77,26,29.77s-.36.54-.77.54-4.66-.08-5.88,2.74l-4.95,12.4s-.94,2.69.8,4.4l1.75,1.71s.47.14.2,1.08S13,64.19,13,64.19,7.16,81.36,24.39,82,57.9,83.33,57.9,83.33s10.71,1.38,13.47-7L83.8,37.43S85.59,32.81,82,29.5c0,0-.45-.37-.69.37L66.66,74.08s-.79,3.56-5.31,3.45S22,76.06,22,76.06s-4.95-.55-5-3.54c0,0-.46-1.88,1.39-2Z"/><path class="cls-2" d="M35.29,64.36a1.18,1.18,0,0,1-1.17.57c-.93,0-14.79-.57-14.79-.57l-1,6.11,37.79,1s5.61.68,7.63-5.76Z"/><path class="cls-2" d="M40.45,29.28H36.26A1,1,0,0,1,35.33,28l1.55-3.47a1,1,0,0,1,.94-.59h4a1,1,0,0,1,1,1.29l-1.36,3.47A1,1,0,0,1,40.45,29.28Z"/><path class="cls-3" d="M40,28.48h-3a.68.68,0,0,1-.66-.93l1.09-2.45a.74.74,0,0,1,.67-.41H41a.67.67,0,0,1,.67.9l-1,2.45A.7.7,0,0,1,40,28.48Z"/><path class="cls-3" d="M35.65,44.82s-.24-7.44,10-11c0,0,9.43-2.54,11.6,4.29,0,0,2.06,5.75-5.61,11a13.91,13.91,0,0,1-10.76,2.12A6.49,6.49,0,0,1,35.65,44.82Z"/><path class="cls-2" d="M39.72,43.91a5.66,5.66,0,0,1,5.93-2.35s3.15,1.3.9,4.48a5.72,5.72,0,0,1-3.64,2.19S48,50,52.81,44.94c0,0,4.28-4.93-.61-7.95,0,0-3.21-2.09-7.88.55S39.72,43.91,39.72,43.91Z"/><path class="cls-3" d="M47.13,30S58,28.1,61.1,37.53,54.05,55.11,46.8,55.66s-8.41-.46-8.41-.46a.79.79,0,0,1,0,.36c-.05.22-.26.83-.29.9s10.49,2.38,17.41-2.7S63.28,42,62.76,39.17c0-.11,0-.22,0-.33-.17-.94-1.15-5.42-5.09-7.69A14.26,14.26,0,0,0,47.73,29Z"/></svg>