<svg width="28" height="28" viewBox="0 0 21 18" fill="none" xmlns="http://www.w3.org/2000/svg">
<path d="M10.375 17.5C10.375 17.5 1 12.25 1 5.87501C1.00019 4.74826 1.39061 3.65635 2.10489 2.78493C2.81916 1.91351 3.8132 1.31636 4.91799 1.09501C6.02278 0.873669 7.17014 1.04179 8.16499 1.57079C9.15984 2.09979 9.94077 2.95702 10.375 3.99673L10.375 3.99673C10.8092 2.95702 11.5902 2.09979 12.585 1.57079C13.5799 1.04179 14.7272 0.873672 15.832 1.09502C16.9368 1.31636 17.9308 1.91351 18.6451 2.78493C19.3594 3.65635 19.7498 4.74826 19.75 5.87501C19.75 12.25 10.375 17.5 10.375 17.5Z" stroke="#9BA4B1" stroke-linecap="round" stroke-linejoin="round"/>
</svg>
