<svg width="24" height="24" viewBox="0 0 24 24" fill="none" xmlns="http://www.w3.org/2000/svg">
<path d="M21 12C20.7348 12 20.4804 12.1054 20.2929 12.2929C20.1054 12.4804 20 12.7348 20 13V19C20 19.2652 19.8946 19.5196 19.7071 19.7071C19.5196 19.8946 19.2652 20 19 20H5C4.73478 20 4.48043 19.8946 4.29289 19.7071C4.10536 19.5196 4 19.2652 4 19V5C4 4.73478 4.10536 4.48043 4.29289 4.29289C4.48043 4.10536 4.73478 4 5 4H11C11.2652 4 11.5196 3.89464 11.7071 3.70711C11.8946 3.51957 12 3.26522 12 3C12 2.73478 11.8946 2.48043 11.7071 2.29289C11.5196 2.10536 11.2652 2 11 2H5C4.20435 2 3.44129 2.31607 2.87868 2.87868C2.31607 3.44129 2 4.20435 2 5V19C2 19.7956 2.31607 20.5587 2.87868 21.1213C3.44129 21.6839 4.20435 22 5 22H19C19.7956 22 20.5587 21.6839 21.1213 21.1213C21.6839 20.5587 22 19.7956 22 19V13C22 12.7348 21.8946 12.4804 21.7071 12.2929C21.5196 12.1054 21.2652 12 21 12ZM6 12.76V17C6 17.2652 6.10536 17.5196 6.29289 17.7071C6.48043 17.8946 6.73478 18 7 18H11.24C11.3716 18.0008 11.5021 17.9755 11.6239 17.9258C11.7457 17.876 11.8566 17.8027 11.95 17.71L18.87 10.78L21.71 8C21.8037 7.90704 21.8781 7.79644 21.9289 7.67458C21.9797 7.55272 22.0058 7.42201 22.0058 7.29C22.0058 7.15799 21.9797 7.02728 21.9289 6.90542C21.8781 6.78356 21.8037 6.67296 21.71 6.58L17.47 2.29C17.377 2.19627 17.2664 2.12188 17.1446 2.07111C17.0227 2.02034 16.892 1.9942 16.76 1.9942C16.628 1.9942 16.4973 2.02034 16.3754 2.07111C16.2536 2.12188 16.143 2.19627 16.05 2.29L13.23 5.12L6.29 12.05C6.19732 12.1434 6.12399 12.2543 6.07423 12.3761C6.02446 12.4979 5.99924 12.6284 6 12.76ZM16.76 4.41L19.59 7.24L18.17 8.66L15.34 5.83L16.76 4.41ZM8 13.17L13.93 7.24L16.76 10.07L10.83 16H8V13.17Z" fill="black"/>
</svg>
