<svg width="none" height="none" viewBox="0 0 24 24" fill="none" xmlns="http://www.w3.org/2000/svg">
<path d="M22.2857 9.42857H14.5714V1.71429C14.5714 0.767679 13.8038 0 12.8571 0H11.1429C10.1962 0 9.42857 0.767679 9.42857 1.71429V9.42857H1.71429C0.767679 9.42857 0 10.1962 0 11.1429V12.8571C0 13.8038 0.767679 14.5714 1.71429 14.5714H9.42857V22.2857C9.42857 23.2323 10.1962 24 11.1429 24H12.8571C13.8038 24 14.5714 23.2323 14.5714 22.2857V14.5714H22.2857C23.2323 14.5714 24 13.8038 24 12.8571V11.1429C24 10.1962 23.2323 9.42857 22.2857 9.42857Z" fill="url(#paint0_linear_142_2094)"/>
<path d="M22.2857 9.42857H14.5714V1.71429C14.5714 0.767679 13.8038 0 12.8571 0H11.1429C10.1962 0 9.42857 0.767679 9.42857 1.71429V9.42857H1.71429C0.767679 9.42857 0 10.1962 0 11.1429V12.8571C0 13.8038 0.767679 14.5714 1.71429 14.5714H9.42857V22.2857C9.42857 23.2323 10.1962 24 11.1429 24H12.8571C13.8038 24 14.5714 23.2323 14.5714 22.2857V14.5714H22.2857C23.2323 14.5714 24 13.8038 24 12.8571V11.1429C24 10.1962 23.2323 9.42857 22.2857 9.42857Z" fill="url(#paint1_linear_142_2094)" fill-opacity="0.75" style="mix-blend-mode:lighten"/>
<defs>
<linearGradient id="paint0_linear_142_2094" x1="3.5625" y1="3.75" x2="20.4375" y2="20.25" gradientUnits="userSpaceOnUse">
<stop stop-color="#F472B6"/>
<stop offset="0.497013" stop-color="#9797D7"/>
<stop offset="1" stop-color="#38BDF8"/>
</linearGradient>
<linearGradient id="paint1_linear_142_2094" x1="21.375" y1="5.8125" x2="2.0625" y2="17.625" gradientUnits="userSpaceOnUse">
<stop stop-color="#F472B6"/>
<stop offset="0.58113" stop-color="#9199D9"/>
<stop offset="1" stop-color="#38BDF8"/>
</linearGradient>
</defs>
</svg>
