<svg width="12" height="13" viewBox="0 0 12 13" fill="transparent" xmlns="http://www.w3.org/2000/svg">
<path d="M11.5533 2.9706L9.49826 0.908153C9.23005 0.655313 8.87859 0.510237 8.51075 0.500521C8.1429 0.490806 7.78432 0.61713 7.50324 0.855463L0.753161 7.62991C0.510732 7.87527 0.359785 8.19686 0.325656 8.5407L0.00315225 11.6795C-0.00695114 11.7898 0.00730304 11.9009 0.0448986 12.005C0.0824942 12.1091 0.142505 12.2036 0.220655 12.2817C0.290735 12.3515 0.373849 12.4067 0.465228 12.4441C0.556607 12.4816 0.654455 12.5006 0.753161 12.5H0.820661L3.9482 12.214C4.2908 12.1797 4.61123 12.0282 4.85571 11.7849L11.6058 5.01046C11.8678 4.73268 12.0094 4.362 11.9995 3.97964C11.9897 3.59728 11.8292 3.23443 11.5533 2.9706ZM9.74647 4.75742C9.33492 5.16013 8.67572 5.15596 8.2693 4.74807L7.72191 4.1987C7.31757 3.7929 7.31342 3.1378 7.7126 2.72691V2.72691C8.12106 2.30647 8.79477 2.3022 9.20852 2.71745L9.7559 3.26681C10.1676 3.67995 10.1633 4.34951 9.74647 4.75742V4.75742Z" fill="#B1B8C0"/>
</svg>
