<svg width="22" height="22" viewBox="0 0 22 22" fill="none" xmlns="http://www.w3.org/2000/svg">
<path fill-rule="evenodd" clip-rule="evenodd" d="M18.124 1.5804C17.132 1.7564 15.79 2.2004 13.894 2.8334L4.56203 5.9434C3.50203 6.2974 2.77503 6.5414 2.26803 6.7844C1.76503 7.0264 1.63103 7.1984 1.57903 7.3234C1.53549 7.4285 1.50915 7.53993 1.50103 7.6534C1.49103 7.7874 1.53403 8.0014 1.87603 8.4434C2.22103 8.8874 2.76203 9.4304 3.55203 10.2204L3.83503 10.5034L3.87503 10.5434C4.09103 10.7594 4.26603 10.9334 4.40303 11.1364C4.67203 11.5314 4.82403 11.9944 4.84303 12.4724C4.85303 12.7164 4.81603 12.9614 4.77103 13.2624L4.76203 13.3184C4.68207 13.8115 4.61537 14.3067 4.56203 14.8034C4.53003 15.1624 4.54203 15.3594 4.57303 15.4964C4.59603 15.5934 4.62503 15.6884 4.66103 15.7784L18.939 1.5004C18.725 1.4964 18.459 1.5204 18.124 1.5804ZM20.793 0.7074C21.558 1.4734 21.597 2.5174 21.397 3.6384C21.199 4.7524 20.717 6.1984 20.111 8.0164L16.943 17.5204C16.619 18.4924 16.353 19.2884 16.073 19.8774C15.786 20.4794 15.417 21.0134 14.803 21.2844C14.5166 21.4102 14.2095 21.4824 13.897 21.4974C13.226 21.5304 12.657 21.2174 12.132 20.8074C11.617 20.4074 11.024 19.8134 10.3 19.0894L10.012 18.8014C9.72803 18.5174 9.65503 18.4494 9.58403 18.4014C9.42753 18.2967 9.24597 18.2356 9.05803 18.2244C8.97103 18.2194 8.87303 18.2294 8.47503 18.2834L8.37903 18.2964C7.74603 18.3824 7.23803 18.4514 6.82603 18.4814C6.40603 18.5134 6.02703 18.5114 5.66403 18.4214C5.04035 18.2689 4.47134 17.946 4.02053 17.4888C3.56971 17.0316 3.25483 16.4582 3.11103 15.8324C3.02803 15.4684 3.03103 15.0894 3.06803 14.6704C3.10403 14.2594 3.18103 13.7514 3.27503 13.1204L3.27903 13.0964C3.33703 12.7114 3.34803 12.6154 3.34503 12.5314C3.33687 12.3336 3.27347 12.142 3.16203 11.9784C3.11503 11.9094 3.05003 11.8394 2.77403 11.5644L2.45403 11.2444C1.71003 10.5004 1.10103 9.8904 0.691029 9.3624C0.271029 8.8224 -0.0439709 8.2354 0.00502907 7.5464C0.0245248 7.27237 0.0880034 7.00326 0.193029 6.7494C0.458029 6.1104 1.00203 5.7284 1.61903 5.4324C2.22103 5.1424 3.03903 4.8704 4.03803 4.5374L13.483 1.3894C15.301 0.7834 16.747 0.3004 17.861 0.1024C18.983 -0.0976002 20.028 -0.0576002 20.793 0.7074ZM20 2.5604L5.70303 16.8574C5.80503 16.9014 5.91103 16.9374 6.02103 16.9644C6.15803 16.9984 6.35503 17.0124 6.71403 16.9864C7.07503 16.9594 7.53903 16.8964 8.20103 16.8064L8.27303 16.7964L8.33103 16.7884C8.64203 16.7464 8.89603 16.7124 9.14803 16.7274C9.60186 16.7548 10.0402 16.9025 10.418 17.1554C10.628 17.2954 10.809 17.4774 11.031 17.6994L11.073 17.7414L11.324 17.9914C12.094 18.7614 12.622 19.2884 13.054 19.6254C13.484 19.9604 13.694 20.0054 13.824 19.9994C13.953 19.9933 14.0798 19.9635 14.198 19.9114C14.318 19.8584 14.484 19.7244 14.718 19.2314C14.955 18.7374 15.192 18.0304 15.536 16.9984L18.666 7.6064C19.299 5.7094 19.744 4.3684 19.921 3.3764C19.981 3.0404 20.003 2.7744 20 2.5604Z" fill="black"/>
</svg>
