<svg width="24" height="24" viewBox="0 0 24 24" fill="none" stroke="transparent" xmlns="http://www.w3.org/2000/svg">
<path opacity="0.2" d="M12 17.625C15.1066 17.625 17.625 15.1066 17.625 12C17.625 8.8934 15.1066 6.375 12 6.375C8.8934 6.375 6.375 8.8934 6.375 12C6.375 15.1066 8.8934 17.625 12 17.625Z" fill="transparent"/>
<path d="M12 17.625C15.1066 17.625 17.625 15.1066 17.625 12C17.625 8.8934 15.1066 6.375 12 6.375C8.8934 6.375 6.375 8.8934 6.375 12C6.375 15.1066 8.8934 17.625 12 17.625Z" stroke="transparent" stroke-width="1.5" stroke-linecap="round" stroke-linejoin="round"/>
<path d="M12 3.375V1.5" stroke="transparent" stroke-width="1.5" stroke-linecap="round" stroke-linejoin="round"/>
<path d="M5.90102 5.90127L4.5752 4.57544" stroke="transparent" stroke-width="1.5" stroke-linecap="round" stroke-linejoin="round"/>
<path d="M3.375 12H1.5" stroke="transparent" stroke-width="1.5" stroke-linecap="round" stroke-linejoin="round"/>
<path d="M5.90102 18.0989L4.5752 19.4247" stroke="transparent" stroke-width="1.5" stroke-linecap="round" stroke-linejoin="round"/>
<path d="M12 20.625V22.5" stroke="transparent" stroke-width="1.5" stroke-linecap="round" stroke-linejoin="round"/>
<path d="M18.0986 18.0989L19.4245 19.4247" stroke="transparent" stroke-width="1.5" stroke-linecap="round" stroke-linejoin="round"/>
<path d="M20.625 12H22.5" stroke="transparent" stroke-width="1.5" stroke-linecap="round" stroke-linejoin="round"/>
<path d="M18.0986 5.90127L19.4245 4.57544" stroke="transparent" stroke-width="1.5" stroke-linecap="round" stroke-linejoin="round"/>
</svg>
