<svg width="200" height="256" viewBox="0 0 200 256" fill="none" xmlns="http://www.w3.org/2000/svg">
<path d="M151.552 37.5506L161.53 58.0067L131.249 152.055L39.6507 149.553L29.8463 134.483L69.5657 35.5642L151.552 37.5506Z" fill="url(#paint0_linear_1024_2661)"/>
<path d="M40.3069 122.928L71.7852 40.9313C71.7852 40.9313 72.2098 40.3392 73.8503 40.3392C75.4908 40.3392 99.1719 40.7785 99.1719 40.7785C99.1719 40.7785 99.9825 40.7785 99.7316 41.5043L94.9066 55.963C94.8085 56.3938 94.5627 56.7778 94.2108 57.0494C93.8589 57.321 93.4227 57.4636 92.9766 57.4528C91.4712 57.4528 70.6272 62.4761 63.8336 81.2132C57.04 99.9503 77.0927 105.432 77.0927 105.432C77.0927 105.432 77.2664 105.776 76.7646 107.17C76.2628 108.564 71.1097 122.928 71.1097 122.928L126.037 125.563L151.127 46.0692C151.127 46.0692 156.049 29.8151 139.856 29.4713C123.664 29.1275 72.48 28.9938 72.48 28.9938C72.48 28.9938 64.76 28.5736 61.9229 35.4687C59.0858 42.3638 53.18 56.8607 53.18 56.8607C53.18 56.8607 52.4852 57.8921 51.6939 57.8921C50.9026 57.8921 42.7001 57.7393 40.3455 63.1255L30.792 86.8095C30.792 86.8095 28.9778 91.9474 32.336 95.2135L35.7135 98.4796C35.7135 98.4796 36.6206 98.747 36.0995 100.542C35.5784 102.338 28.09 122.603 28.09 122.603C28.09 122.603 16.8188 155.398 50.0727 156.62C83.3266 157.842 114.747 159.16 114.747 159.16C114.747 159.16 135.417 161.796 140.744 145.79L164.734 71.4913C164.734 71.4913 168.189 62.6671 161.26 56.345C161.26 56.345 160.391 55.6383 159.928 57.0517L131.654 141.493C131.654 141.493 130.129 148.292 121.405 148.082C112.682 147.872 45.46 145.275 45.46 145.275C45.46 145.275 35.9065 144.224 35.81 138.513C35.81 138.513 34.9222 134.922 38.4927 134.693L40.3069 122.928Z" fill="#2C2A2B"/>
<path d="M71.1098 122.928C70.8827 123.308 70.5476 123.614 70.1461 123.808C69.7446 124.001 69.2944 124.074 68.8517 124.016C67.0568 124.016 40.307 122.928 40.307 122.928L38.377 134.598L111.312 136.508C111.312 136.508 122.139 137.807 126.038 125.506L71.1098 122.928Z" fill="#2C2A2B"/>
<path d="M81.0686 55.9248H72.9818C72.6871 55.9161 72.3984 55.8407 72.1377 55.7044C71.8771 55.568 71.6514 55.3744 71.4781 55.1384C71.3048 54.9023 71.1885 54.6301 71.138 54.3426C71.0875 54.0552 71.1043 53.7601 71.187 53.48L74.1785 46.8523C74.3346 46.5082 74.5902 46.2175 74.9131 46.0169C75.236 45.8164 75.6116 45.715 75.9926 45.7254H83.7126C84.0209 45.7122 84.3279 45.7723 84.6078 45.9007C84.8877 46.0292 85.1325 46.2221 85.3215 46.4634C85.5105 46.7048 85.6383 46.9874 85.6942 47.2877C85.7501 47.588 85.7324 47.8972 85.6427 48.1893L83.0178 54.817C82.8506 55.18 82.5726 55.4821 82.223 55.6807C81.8734 55.8794 81.4697 55.9648 81.0686 55.9248Z" fill="#2C2A2B"/>
<path d="M80.2 54.3968H74.41C74.1915 54.4056 73.9742 54.3603 73.7779 54.265C73.5816 54.1696 73.4125 54.0272 73.286 53.8507C73.1594 53.6743 73.0794 53.4693 73.0532 53.2544C73.0271 53.0396 73.0556 52.8217 73.1362 52.6205L75.2399 47.941C75.3594 47.7035 75.5441 47.5041 75.7728 47.3656C76.0014 47.2271 76.2649 47.1551 76.533 47.1579H82.13C82.3445 47.1448 82.559 47.1849 82.754 47.2745C82.949 47.3641 83.1183 47.5003 83.2467 47.671C83.3751 47.8416 83.4584 48.0413 83.4892 48.2518C83.52 48.4624 83.4973 48.6772 83.4231 48.8769L81.4931 53.5564C81.3904 53.8106 81.2114 54.0276 80.9801 54.1779C80.7488 54.3282 80.4765 54.4046 80.2 54.3968Z" fill="white"/>
<path d="M71.8045 85.6062C71.8045 85.6062 71.3413 71.3958 91.1045 64.5962C91.1045 64.5962 109.304 59.7448 113.493 72.7901C113.493 72.7901 117.468 83.7726 102.665 93.8001C99.6617 95.8325 96.272 97.2395 92.7021 97.9355C89.1321 98.6316 85.4565 98.6023 81.8984 97.8493C79.0394 97.2894 76.4672 95.7604 74.6248 93.5257C72.7823 91.2909 71.785 88.4903 71.8045 85.6062Z" fill="white"/>
<path d="M79.6595 83.8681C80.8903 82.0682 82.6406 80.6771 84.6822 79.8764C86.7238 79.0757 88.9619 78.9026 91.1044 79.3796C91.1044 79.3796 97.1839 81.8626 92.8414 87.9364C91.1291 90.1715 88.6137 91.6692 85.8162 92.1193C85.8162 92.1193 95.6399 95.5 104.923 85.8354C104.923 85.8354 113.184 76.4191 103.746 70.6509C103.746 70.6509 97.5506 66.659 88.5375 71.7014C79.5244 76.7438 79.6595 83.8681 79.6595 83.8681Z" fill="#2C2A2B"/>
<path d="M93.9609 57.3C93.9609 57.3 114.94 53.671 120.923 71.6823C126.906 89.6936 107.316 105.26 93.324 106.311C79.3315 107.361 77.0927 105.432 77.0927 105.432C77.1461 105.658 77.1461 105.893 77.0927 106.12C76.9962 106.54 76.5909 107.705 76.533 107.839C76.4751 107.972 96.7787 112.384 110.134 102.682C123.49 92.9788 125.13 80.22 124.127 74.8147C124.127 74.6046 124.127 74.3945 124.127 74.1844C123.799 72.389 121.907 63.8322 114.303 59.4965C108.636 55.8409 101.806 54.379 95.1189 55.39L93.9609 57.3Z" fill="white"/>
<path d="M18.1249 216.825C15.6249 215.9 13.5749 214.95 11.6249 213.975C9.78254 213.082 8.0946 211.9 6.62494 210.475C5.19534 209.099 4.07101 207.438 3.32494 205.6C2.48979 203.389 2.09078 201.038 2.14994 198.675C2.05516 196.299 2.48545 193.931 3.41017 191.74C4.33489 189.55 5.7313 187.59 7.49994 186C11.6759 182.623 16.9637 180.928 22.3249 181.25C24.4964 181.24 26.6641 181.433 28.7999 181.825C30.5931 182.113 32.3306 182.678 33.9499 183.5C35.2983 184.195 36.4503 185.218 37.2999 186.475C38.133 187.724 38.5607 189.199 38.5249 190.7C38.5615 192.166 38.2077 193.616 37.4999 194.9C36.8916 196.004 36.0965 196.993 35.1499 197.825C33.6894 196.817 32.0775 196.049 30.3749 195.55C28.2567 194.881 26.046 194.552 23.8249 194.575C21.9678 194.431 20.1089 194.831 18.4749 195.725C17.9606 196.028 17.5336 196.459 17.2357 196.976C16.9377 197.493 16.779 198.078 16.7749 198.675C16.7651 199.109 16.8545 199.54 17.0365 199.934C17.2185 200.328 17.4882 200.676 17.8249 200.95C18.7715 201.672 19.8378 202.222 20.9749 202.575L25.2749 204.15C29.6673 205.602 33.6694 208.039 36.9749 211.275C39.8291 214.513 41.3009 218.74 41.0749 223.05C41.1599 225.45 40.7183 227.84 39.7811 230.051C38.8438 232.263 37.4338 234.242 35.6499 235.85C32.0249 239.1 26.6999 240.85 19.6749 240.85C17.3486 240.857 15.0279 240.622 12.7499 240.15C10.8013 239.743 8.923 239.052 7.17494 238.1C5.69496 237.256 4.43567 236.074 3.49994 234.65C2.59124 233.281 2.12041 231.668 2.14994 230.025C2.11493 228.385 2.59591 226.776 3.52494 225.425C4.32877 224.267 5.34716 223.274 6.52494 222.5C8.18111 223.949 10.0537 225.13 12.0749 226C14.3298 227.014 16.7779 227.525 19.2499 227.5C21.2138 227.687 23.1822 227.192 24.8249 226.1C25.3246 225.717 25.7305 225.225 26.012 224.662C26.2936 224.099 26.4433 223.48 26.4499 222.85C26.4841 222.305 26.3833 221.759 26.1566 221.262C25.9298 220.765 25.5841 220.332 25.1499 220C24.0282 219.214 22.8099 218.575 21.5249 218.1L18.1249 216.825Z" fill="url(#paint1_linear_1024_2661)"/>
<path d="M43.85 211C43.7697 206.635 44.4377 202.289 45.825 198.15C46.9828 194.684 48.828 191.487 51.25 188.75C53.502 186.276 56.2661 184.322 59.35 183.025C65.8238 180.426 73.0511 180.426 79.525 183.025C82.6166 184.321 85.3891 186.275 87.65 188.75C90.0908 191.463 91.9537 194.644 93.125 198.1C94.484 202.261 95.1182 206.624 95 211C95.0808 215.377 94.4302 219.737 93.075 223.9C91.9354 227.369 90.0977 230.568 87.675 233.3C85.4184 235.78 82.6448 237.734 79.55 239.025C76.3041 240.345 72.8287 241.007 69.325 240.975C65.8251 241 62.3561 240.32 59.125 238.975C56.0231 237.664 53.255 235.673 51.025 233.15C48.6404 230.403 46.8298 227.207 45.7 223.75C44.3734 219.634 43.748 215.324 43.85 211ZM58.425 211C58.1131 215.432 59.1596 219.853 61.425 223.675C62.3343 224.965 63.5402 226.017 64.9411 226.743C66.342 227.47 67.897 227.849 69.475 227.849C71.053 227.849 72.6079 227.47 74.0088 226.743C75.4097 226.017 76.6156 224.965 77.525 223.675C79.7903 219.853 80.8368 215.432 80.525 211C80.7919 206.624 79.738 202.269 77.5 198.5C76.6208 197.18 75.4212 196.105 74.0133 195.374C72.6055 194.644 71.0354 194.283 69.45 194.325C67.8649 194.29 66.2963 194.651 64.8862 195.376C63.4761 196.101 62.2692 197.166 61.375 198.475C59.1224 202.245 58.0919 206.621 58.425 211Z" fill="url(#paint2_linear_1024_2661)"/>
<path d="M134.05 225.375C133.271 226.109 132.341 226.664 131.325 227C130.091 227.444 128.786 227.656 127.475 227.625C125.833 227.684 124.197 227.394 122.675 226.775C122.061 226.527 121.515 226.137 121.08 225.637C120.646 225.138 120.336 224.542 120.175 223.9C118.65 218.425 117.425 213.9 116.45 210.625C115.475 207.35 114.725 204.275 114.175 201.725H113.775C113.6 205.4 113.5 208.725 113.4 211.725C113.3 214.725 113.4 217.65 113.25 220.525C113.1 223.4 113.25 226.25 113.075 229.175C112.9 232.1 112.875 235.325 112.725 238.85C111.842 239.22 110.919 239.488 109.975 239.65C108.853 239.856 107.716 239.965 106.575 239.975C104.638 240.089 102.71 239.638 101.025 238.675C100.313 238.12 99.7555 237.392 99.4054 236.561C99.0552 235.729 98.9242 234.822 99.025 233.925L101.375 186.425C102.116 185.38 103.092 184.523 104.225 183.925C106.099 182.879 108.233 182.393 110.375 182.525C112.715 182.393 115.046 182.921 117.1 184.05C118.838 185.243 120.096 187.015 120.65 189.05C121.15 190.55 121.675 192.25 122.225 194.175C122.775 196.1 123.375 198.1 123.925 200.15C124.475 202.2 125.05 204.225 125.6 206.225C126.15 208.225 126.625 210.075 127.05 211.675H127.5C128.8 206.475 130.1 201.475 131.4 196.675C132.7 191.875 133.9 187.733 135 184.25C135.978 183.683 137.03 183.254 138.125 182.975C139.515 182.632 140.943 182.464 142.375 182.475C144.612 182.385 146.836 182.849 148.85 183.825C149.613 184.182 150.278 184.719 150.787 185.389C151.297 186.06 151.636 186.844 151.775 187.675C152 188.925 152.225 190.825 152.45 193.4C152.675 195.975 152.95 198.875 153.225 202.1C153.5 205.325 153.775 208.75 154.05 212.35C154.325 215.95 154.575 219.4 154.825 222.725C155.075 226.05 155.25 229.1 155.425 231.85C155.6 234.6 155.7 236.85 155.75 238.225C154.872 238.83 153.901 239.286 152.875 239.575C151.615 239.882 150.321 240.025 149.025 240C147.221 240.066 145.433 239.643 143.85 238.775C143.086 238.26 142.473 237.55 142.073 236.72C141.673 235.89 141.502 234.968 141.575 234.05C141.242 227.283 141.042 221.2 140.975 215.8C140.975 210.4 140.75 205.8 140.6 202.2H140.2C139.65 204.7 138.875 207.675 137.85 211.325C136.825 214.975 135.5 219.675 134.05 225.375Z" fill="url(#paint3_linear_1024_2661)"/>
<path d="M161.8 191.5C161.671 189.214 162.392 186.961 163.825 185.175C164.509 184.4 165.358 183.789 166.31 183.387C167.262 182.984 168.293 182.801 169.325 182.85H196.05C196.499 183.706 196.843 184.612 197.075 185.55C197.372 186.701 197.514 187.886 197.5 189.075C197.658 190.849 197.179 192.622 196.15 194.075C195.711 194.572 195.167 194.964 194.557 195.224C193.947 195.483 193.287 195.603 192.625 195.575H175.575V204.25H193.8C194.233 205.093 194.568 205.982 194.8 206.9C195.107 208.041 195.258 209.218 195.25 210.4C195.422 212.168 194.962 213.94 193.95 215.4C193.52 215.893 192.984 216.281 192.382 216.537C191.78 216.792 191.128 216.908 190.475 216.875H175.475V226.65H196.275C196.786 227.508 197.197 228.423 197.5 229.375C197.805 230.534 197.956 231.727 197.95 232.925C198.095 234.698 197.618 236.466 196.6 237.925C196.165 238.428 195.622 238.826 195.012 239.09C194.401 239.354 193.739 239.477 193.075 239.45H169.325C168.293 239.499 167.262 239.316 166.31 238.913C165.358 238.511 164.509 237.9 163.825 237.125C162.439 235.391 161.72 233.218 161.8 231V191.5Z" fill="url(#paint4_linear_1024_2661)"/>
<defs>
<linearGradient id="paint0_linear_1024_2661" x1="106.911" y1="148.197" x2="79.9515" y2="20.647" gradientUnits="userSpaceOnUse">
<stop stop-color="#87BCE6"/>
<stop offset="1" stop-color="#EF90B9"/>
</linearGradient>
<linearGradient id="paint1_linear_1024_2661" x1="35.3249" y1="236.45" x2="6.34994" y2="186.25" gradientUnits="userSpaceOnUse">
<stop stop-color="#79ABDC"/>
<stop offset="1" stop-color="#D282B4"/>
</linearGradient>
<linearGradient id="paint2_linear_1024_2661" x1="84.225" y1="236.55" x2="54.75" y2="185.475" gradientUnits="userSpaceOnUse">
<stop stop-color="#79ABDC"/>
<stop offset="1" stop-color="#D282B4"/>
</linearGradient>
<linearGradient id="paint3_linear_1024_2661" x1="144.525" y1="244.7" x2="108.1" y2="181.625" gradientUnits="userSpaceOnUse">
<stop stop-color="#79ABDC"/>
<stop offset="1" stop-color="#D282B4"/>
</linearGradient>
<linearGradient id="paint4_linear_1024_2661" x1="196.25" y1="238.425" x2="164.9" y2="184.125" gradientUnits="userSpaceOnUse">
<stop stop-color="#79ABDC"/>
<stop offset="1" stop-color="#D282B4"/>
</linearGradient>
</defs>
</svg>
